HIERARCHY
ROOT Hips
{
 OFFSET 0.000000 0.000000 0.000000
 CHANNELS 6 Xposition Yposition Zposition Yrotation Xrotation Zrotation
 JOINT Chest
 {
  OFFSET 0.000000 9.585900 0.002600
  CHANNELS 3 Yrotation Xrotation Zrotation
  JOINT Chest2
  {
   OFFSET 0.000000 9.601200 -0.005300
   CHANNELS 3 Yrotation Xrotation Zrotation
   JOINT Chest3
   {
    OFFSET 0.000000 9.561800 0.000000
    CHANNELS 3 Yrotation Xrotation Zrotation
    JOINT Chest4
    {
     OFFSET 0.000000 9.552100 0.000000
     CHANNELS 3 Yrotation Xrotation Zrotation
     JOINT Neck
     {
      OFFSET 0.000000 14.453000 0.000000
      CHANNELS 3 Yrotation Xrotation Zrotation
      JOINT Head
      {
       OFFSET 0.000000 8.936500 -0.011300
       CHANNELS 3 Yrotation Xrotation Zrotation
       End Site
       {
        OFFSET 0.000000 17.073600 -0.006000
       }
      }
     }
     JOINT RightCollar
     {
      OFFSET -2.921100 9.558500 0.000000
      CHANNELS 3 Yrotation Xrotation Zrotation
      JOINT RightShoulder
      {
       OFFSET -13.519700 0.000000 0.000000
       CHANNELS 3 Yrotation Xrotation Zrotation
       JOINT RightElbow
       {
        OFFSET 0.000000 -29.696600 0.000000
        CHANNELS 3 Yrotation Xrotation Zrotation
        JOINT RightWrist
        {
         OFFSET 0.000000 -24.004700 0.000000
         CHANNELS 3 Yrotation Xrotation Zrotation
         End Site
         {
          OFFSET 0.000000 -17.728500 0.000000
         }
        }
       }
      }
     }
     JOINT LeftCollar
     {
      OFFSET 2.921100 9.558500 0.000000
      CHANNELS 3 Yrotation Xrotation Zrotation
      JOINT LeftShoulder
      {
       OFFSET 13.519700 0.000000 0.000000
       CHANNELS 3 Yrotation Xrotation Zrotation
       JOINT LeftElbow
       {
        OFFSET 0.000000 -29.696600 0.000000
        CHANNELS 3 Yrotation Xrotation Zrotation
        JOINT LeftWrist
        {
         OFFSET 0.000000 -24.004700 0.000000
         CHANNELS 3 Yrotation Xrotation Zrotation
         End Site
         {
          OFFSET 0.000000 -17.728500 0.000000
         }
        }
       }
      }
     }
    }
   }
  }
 }
 JOINT RightHip
 {
  OFFSET -7.771700 -0.012900 -0.001300
  CHANNELS 3 Yrotation Xrotation Zrotation
  JOINT RightKnee
  {
   OFFSET 0.000000 -40.869800 0.001200
   CHANNELS 3 Yrotation Xrotation Zrotation
   JOINT RightAnkle
   {
    OFFSET 0.000000 -39.717900 0.002100
    CHANNELS 3 Yrotation Xrotation Zrotation
    JOINT RightToe
    {
     OFFSET 0.000000 -4.965400 11.033500
     CHANNELS 3 Yrotation Xrotation Zrotation
     End Site
     {
      OFFSET 0.000000 -1.423100 5.872300
     }
    }
   }
  }
 }
 JOINT LeftHip
 {
  OFFSET 7.771700 -0.012900 -0.001300
  CHANNELS 3 Yrotation Xrotation Zrotation
  JOINT LeftKnee
  {
   OFFSET 0.000000 -40.869800 0.001200
   CHANNELS 3 Yrotation Xrotation Zrotation
   JOINT LeftAnkle
   {
    OFFSET 0.000000 -39.717900 0.002100
    CHANNELS 3 Yrotation Xrotation Zrotation
    JOINT LeftToe
    {
     OFFSET 0.000000 -4.965400 11.033500
     CHANNELS 3 Yrotation Xrotation Zrotation
     End Site
     {
      OFFSET 0.000000 -1.423100 5.872300
     }
    }
   }
  }
 }
}
MOTION
Frames: 16
Frame Time: 0.008333
8.144049 49.838804 46.438146 172.971718 -34.495337 -6.958121 6.553752 19.241503 6.299509 0.766069 2.584053 0.609327 1.244700 4.149085 0.923946 5.585173 16.634079 4.454298 -2.361214 15.588933 1.813565 -5.059219 -6.722643 4.236799 -2.368508 -3.906096 -6.428857 0.296739 3.374124 -3.298326 85.334250 -79.760809 -93.310121 7.586892 -2.950808 27.171751 -10.173307 -2.393065 1.098020 13.011542 -2.278065 1.587010 -117.890910 -73.270869 134.419353 1.606973 11.750698 -62.293408 1.400435 -46.009720 9.985489 -118.091982 84.130889 -106.090070 -1.859944 -13.025674 -3.407187 -0.282671 0.994047 -0.139747 -9.796472 -49.958435 16.295083 -155.189119 80.948488 -162.050357 1.109428 -15.803452 6.396782 -0.304971 -0.729529 -0.049168
8.145733 49.847142 46.443021 172.972400 -34.472897 -6.927671 6.560135 19.275709 6.340932 0.754934 2.550487 0.563861 1.255720 4.186685 0.967594 5.574318 16.634602 4.452897 -2.394143 15.552351 1.773443 -5.098089 -6.779143 4.189311 -2.384527 -3.966919 -6.522515 0.078018 3.579598 -3.628432 89.067898 -79.923085 -96.844359 7.846722 -3.087746 28.667760 -10.156848 -2.512221 1.152722 13.251197 -2.354040 1.903303 -119.903937 -73.296671 135.820775 1.208952 11.794108 -64.778080 1.398942 -46.035899 9.969043 -118.101951 84.125568 -106.122155 -1.863209 -13.035565 -3.407146 -0.283332 0.997675 -0.136361 -9.753992 -49.982777 16.267001 -155.163227 80.961464 -162.039259 1.091414 -15.798457 6.415029 -0.319729 -0.727177 -0.067885
8.150071 49.856830 46.447547 172.975605 -34.458334 -6.915238 6.559013 19.280281 6.350563 0.762719 2.580447 0.604397 1.244001 4.162499 0.930617 5.588435 16.660388 4.496940 -2.432867 15.511225 1.719065 -5.112136 -6.800430 4.169940 -2.398975 -4.031625 -6.637435 -0.151646 3.770881 -3.929288 92.881830 -80.039408 -100.459171 8.076049 -3.203790 30.129501 -10.149058 -2.627345 1.202257 13.473855 -2.443633 2.219651 -121.974659 -73.364654 137.274353 0.852776 11.788783 -67.153103 1.379308 -46.054299 9.977335 -118.106381 84.120042 -106.150412 -1.854715 -13.032249 -3.406979 -0.287440 0.991397 -0.134656 -9.699360 -50.003437 16.252401 -154.991197 80.958711 -161.860099 1.060587 -15.793709 6.416630 -0.304048 -0.724289 -0.050822
8.153235 49.865782 46.453059 172.978274 -34.435840 -6.897443 6.558941 19.295836 6.380683 0.765911 2.587520 0.619488 1.233247 4.142135 0.893683 5.605924 16.680284 4.539560 -2.473682 15.475185 1.665276 -5.178426 -6.892610 4.059091 -2.412772 -4.100012 -6.787891 -0.382786 3.950908 -4.184680 96.717279 -80.090544 -104.108014 8.260435 -3.289682 31.586248 -10.155225 -2.724864 1.229398 13.694624 -2.561624 2.552432 -124.142654 -73.478825 138.804982 0.559617 11.757539 -69.386354 1.365351 -46.081553 9.978813 -118.119267 84.115006 -106.186865 -1.852630 -13.031254 -3.410137 -0.283284 0.989206 -0.129159 -9.626621 -50.030803 16.252061 -154.774548 80.959287 -161.660724 1.005670 -15.785470 6.456011 -0.296237 -0.721181 -0.035995
8.147106 49.871374 46.460108 172.976581 -34.389162 -6.824144 6.540713 19.287335 6.353340 0.764428 2.584929 0.619156 1.236260 4.152963 0.899971 5.603789 16.679496 4.549125 -2.489556 15.455388 1.632588 -5.240016 -6.973896 3.953700 -2.440732 -4.148075 -6.887622 -0.605266 4.092187 -4.477524 100.469526 -80.059833 -107.686594 8.399111 -3.349298 33.069946 -10.165561 -2.811207 1.258589 13.913152 -2.693020 2.880474 -126.434331 -73.640056 140.438194 0.339784 11.725960 -71.454268 1.415620 -46.133625 9.897626 -118.166551 84.107542 -106.249815 -1.896713 -13.068341 -3.409132 -0.280989 1.013275 -0.122065 -9.520892 -50.080217 16.184661 -154.590281 80.980821 -161.529087 0.985480 -15.775267 6.497725 -0.324003 -0.715868 -0.029678
8.147770 49.880464 46.463163 172.980198 -34.377627 -6.792948 6.540835 19.318766 6.402321 0.756434 2.563299 0.576191 1.240627 4.166745 0.915212 5.598096 16.678426 4.559600 -2.518714 15.427435 1.580515 -5.274149 -7.031355 3.873386 -2.465870 -4.193122 -6.984741 -0.823506 4.212578 -4.763013 104.035081 -79.944921 -111.090062 8.499128 -3.385333 34.595607 -10.175145 -2.884834 1.288911 14.124105 -2.832319 3.203018 -128.886992 -73.843457 142.217275 0.188813 11.713441 -73.333731 1.438933 -46.146969 9.858549 -118.216244 84.105192 -106.304873 -1.897049 -13.086741 -3.410121 -0.286688 1.026230 -0.121612 -9.479628 -50.092426 16.144934 -154.532834 80.990986 -161.483110 0.977709 -15.766643 6.507118 -0.326528 -0.719871 -0.045423
8.149880 49.889113 46.465695 172.991223 -34.366877 -6.775963 6.534316 19.336115 6.433979 0.747515 2.543927 0.535263 1.248998 4.185193 0.956726 5.587796 16.680936 4.564489 -2.547162 15.402524 1.524831 -5.300441 -7.092699 3.796714 -2.487626 -4.237274 -7.077977 -1.032110 4.313560 -5.043059 107.359047 -79.752831 -114.262966 8.580690 -3.394567 36.170795 -10.184558 -2.934153 1.278443 14.319144 -2.997260 3.556679 -131.511178 -74.077380 144.157124 0.109386 11.730831 -75.000776 1.428266 -46.161260 9.853436 -118.265099 84.093032 -106.373053 -1.902229 -13.093405 -3.411930 -0.290424 1.025682 -0.116407 -9.444249 -50.103641 16.132800 -154.365138 80.992756 -161.330186 0.944239 -15.759109 6.527210 -0.319577 -0.721909 -0.052829
8.154276 49.897104 46.467832 173.004035 -34.355926 -6.775724 6.524878 19.337439 6.446083 0.748525 2.554113 0.557013 1.256112 4.203864 0.993502 5.562018 16.669102 4.539734 -2.568299 15.374026 1.475604 -5.325670 -7.152687 3.719616 -2.500864 -4.269901 -7.150576 -1.237390 4.385082 -5.336782 110.433335 -79.492934 -117.194069 8.670831 -3.377996 37.810630 -10.191303 -2.980842 1.268687 14.488870 -3.153976 3.901726 -134.294930 -74.336762 146.260716 0.097744 11.775672 -76.454290 1.398198 -46.175557 9.871106 -118.297156 84.078573 -106.423501 -1.900030 -13.091131 -3.412819 -0.274172 1.014863 -0.116136 -9.421251 -50.112688 16.171897 -154.092571 80.984332 -161.088947 0.878538 -15.750326 6.564406 -0.297492 -0.723998 -0.047085
8.153310 49.901425 46.471217 173.021126 -34.320654 -6.750005 6.500043 19.318847 6.426504 0.761311 2.585688 0.616528 1.234502 4.168449 0.925329 5.561654 16.673636 4.556949 -2.573405 15.348358 1.465106 -5.346257 -7.205624 3.636656 -2.510126 -4.290426 -7.195500 -1.427943 4.436959 -5.626143 113.271492 -79.170227 -119.892320 8.791606 -3.343858 39.519313 -10.223718 -3.050450 1.395853 14.656586 -3.230761 4.138327 -137.233334 -74.612535 148.545471 0.141483 11.848347 -77.710438 1.394507 -46.213824 9.845085 -118.335042 84.065232 -106.478839 -1.909147 -13.107785 -3.415821 -0.264352 1.018067 -0.110854 -9.391925 -50.143916 16.158307 -154.092632 81.006376 -161.130660 0.849065 -15.750972 6.588553 -0.336321 -0.715321 -0.045646
8.151327 49.905052 46.472811 173.048939 -34.286975 -6.727284 6.478394 19.326837 6.450386 0.750900 2.571482 0.591381 1.232451 4.167703 0.930005 5.545715 16.666458 4.540533 -2.582687 15.328974 1.452580 -5.355355 -7.259775 3.559065 -2.521461 -4.318181 -7.247224 -1.587715 4.480611 -5.904870 115.887716 -78.794077 -122.374288 8.962830 -3.306013 41.278772 -10.260430 -3.100643 1.474598 14.783084 -3.320591 4.405731 -140.324563 -74.889893 151.021455 0.228588 11.959944 -78.786309 1.367345 -46.250475 9.828029 -118.463631 84.051760 -106.639640 -1.922875 -13.125408 -3.418745 -0.263356 1.022007 -0.101184 -9.348518 -50.181671 16.124409 -154.007732 81.013143 -161.064867 0.802209 -15.746244 6.622577 -0.321845 -0.711914 -0.052774
8.150010 49.912571 46.466313 173.091087 -34.301162 -6.716168 6.447759 19.375207 6.462442 0.744561 2.567295 0.584556 1.230959 4.184767 0.963663 5.506836 16.680018 4.572029 -2.600921 15.277282 1.355673 -5.356024 -7.314605 3.487617 -2.516363 -4.384738 -7.383118 -1.703048 4.508236 -6.181318 118.291225 -78.380147 -124.653953 9.198245 -3.282365 43.059447 -10.257252 -3.178164 1.413824 14.844115 -3.433985 4.715435 -143.547058 -75.156697 153.671679 0.343896 12.109053 -79.701432 1.364527 -46.232557 9.784451 -118.730722 84.048448 -106.914075 -1.914146 -13.159162 -3.416553 -0.255975 1.017963 -0.105671 -9.301107 -50.168776 16.079390 -153.942600 81.013584 -161.012722 0.752313 -15.737704 6.651905 -0.295084 -0.723535 -0.074922
8.149048 49.917227 46.462060 173.125961 -34.290314 -6.711011 6.414222 19.381792 6.453723 0.743873 2.581770 0.602479 1.224290 4.192696 0.975962 5.477106 16.682175 4.570223 -2.604068 15.249627 1.319319 -5.349848 -7.367812 3.422491 -2.493621 -4.434464 -7.473540 -1.800829 4.526681 -6.456528 120.495308 -77.940339 -126.736338 9.496288 -3.293416 44.825650 -10.296688 -3.243339 1.458490 14.910225 -3.505879 4.964843 -146.845814 -75.397979 156.442055 0.473855 12.274998 -80.482440 1.343905 -46.242357 9.763815 -118.914152 84.043261 -107.110859 -1.915263 -13.180907 -3.414231 -0.262433 1.015653 -0.107846 -9.272410 -50.182075 16.050738 -153.910105 81.014280 -160.993148 0.727848 -15.736510 6.672122 -0.308058 -0.724956 -0.077148
8.145984 49.921024 46.456637 173.165260 -34.274467 -6.701669 6.375017 19.385174 6.438410 0.739257 2.600088 0.618946 1.218648 4.185568 0.968804 5.461732 16.679017 4.564211 -2.607821 15.243628 1.317093 -5.337905 -7.419058 3.364670 -2.477025 -4.452433 -7.511687 -1.878233 4.517238 -6.768084 122.533509 -77.482010 -128.639390 9.837434 -3.352205 46.547049 -10.355218 -3.281327 1.521550 14.955366 -3.573824 5.204032 -150.167124 -75.595853 159.275189 0.614810 12.435631 -81.154646 1.322300 -46.256006 9.738628 -119.100797 84.036288 -107.315485 -1.930441 -13.205612 -3.409329 -0.263209 1.013022 -0.108556 -9.255148 -50.198561 16.015174 -153.903827 81.016881 -161.003549 0.698760 -15.734972 6.694896 -0.312848 -0.724842 -0.077284
8.142793 49.924184 46.450743 173.195284 -34.253047 -6.692384 6.343526 19.398636 6.439932 0.734587 2.607001 0.623545 1.216322 4.158479 0.942190 5.430497 16.725292 4.619451 -2.601230 15.209154 1.276478 -5.324696 -7.457885 3.318833 -2.432995 -4.498543 -7.589345 -1.935009 4.492908 -7.097613 124.439613 -77.010301 -130.391810 10.197455 -3.451036 48.200747 -10.380591 -3.345684 1.522249 14.968496 -3.650748 5.446092 -153.460451 -75.737690 162.117483 0.771648 12.578630 -81.740693 1.317645 -46.276195 9.707200 -119.287625 84.033181 -107.509496 -1.939783 -13.235009 -3.403751 -0.261946 1.021649 -0.109561 -9.239471 -50.221550 15.989528 -153.892583 81.016132 -161.011523 0.684585 -15.731844 6.708830 -0.328890 -0.729433 -0.069751
8.140543 49.927597 46.443791 173.226685 -34.231485 -6.694126 6.314906 19.415548 6.456196 0.728292 2.612265 0.625158 1.211299 4.159435 0.946241 5.387823 16.750668 4.640762 -2.591846 15.174534 1.239289 -5.307735 -7.500334 3.269031 -2.379689 -4.544248 -7.664790 -1.970808 4.457405 -7.444783 126.213403 -76.536237 -131.996640 10.554284 -3.579168 49.759946 -10.406170 -3.404901 1.516450 14.971385 -3.730700 5.672904 -156.650653 -75.819513 164.890470 0.946909 12.696282 -82.260698 1.306223 -46.296926 9.688381 -119.470554 84.028594 -107.697597 -1.943796 -13.258189 -3.399196 -0.263192 1.024387 -0.109037 -9.218726 -50.246206 15.969416 -153.872599 81.010986 -161.001853 0.670424 -15.732276 6.733681 -0.333406 -0.732798 -0.075974
8.137913 49.928961 46.439236 173.270209 -34.183469 -6.706026 6.273191 19.412499 6.471711 0.722392 2.602119 0.619533 1.191602 4.212025 0.996071 5.348513 16.722187 4.601902 -2.581604 15.157402 1.223909 -5.283238 -7.546025 3.221570 -2.324543 -4.569265 -7.718364 -1.986783 4.409764 -7.810008 127.848030 -76.077740 -133.445112 10.885873 -3.733393 51.200354 -10.440086 -3.435152 1.522583 14.969324 -3.815376 5.878029 -159.671435 -75.841071 167.523264 1.134149 12.783973 -82.731833 1.280054 -46.342282 9.669565 -119.617198 84.025218 -107.847513 -1.938209 -13.276721 -3.401604 -0.264097 1.024726 -0.105474 -9.221642 -50.297480 15.960103 -153.870319 81.007490 -161.008526 0.651102 -15.737804 6.756997 -0.327508 -0.726348 -0.080216
